<?xml version="1.0" encoding="UTF-8"?>
<svg id="Layer_2" data-name="Layer 2" xmlns="http://www.w3.org/2000/svg" viewBox="0 0 2000 2000">
  <defs>
    <style>
      .cls-1 {
        font-size: 130px;
      }

      .cls-1, .cls-2, .cls-3 {
        fill: #fff200;
      }

      .cls-1, .cls-3 {
        font-family: Ebrima-Bold, Ebrima;
        font-weight: 700;
      }

      .cls-3 {
        font-size: 139px;
      }
    </style>
  </defs>
  <g>
    <path class="cls-2" d="M795.68115,1285.00293c-1.28516.00098-2.54688-.61719-3.31982-1.7627-1.23535-1.83105-.75244-4.31738,1.07861-5.55273,14.84912-10.01953,37.31152-15.42969,56.97021-1.65332,15.65479-10.79883,37.28467-14.58789,53.92969-.51953,7.09473-6.16992,15.729-9.33887,24.66797-9.0127,7.91357.2959,15.40869,3.46387,21.12256,8.82422,6.46143-5.55859,14.24023-8.67285,22.28564-8.85254,8.64746-.18945,17.01953,2.93262,24.44727,9.0752,7.14062-6.4668,13.93945-9.4375,20.66016-9.05957,5.92773.33008,11.56738,3.33789,16.80859,8.9541,15.81738-12.00391,31.94531-11.90625,48.02637.2998,15.34961-13.22656,31.12207-13.2998,46.97168-.21582,10.46094-9.66992,26.90039-15.93555,49.8125.37402,14.5957-11.70898,29.08594-11.72461,43.15137-.04883,43.76855-33.05859,62.9082-61.60742,55.38086-82.66895-6.2002-17.34473-30.16309-30.20703-71.22363-38.22949-45.72363-8.93262-111.66016-11.42676-195.97461-7.41895-1.69141.08105-3.23047-.89844-3.87988-2.44922s-.25977-3.34277.97461-4.4834c73.86035-68.25,52.3877-167.46777,27.52441-282.35156-12.11914-55.99854-24.65137-113.90332-28.80078-175.92334-.14746-2.2041,1.51953-4.11084,3.72461-4.2583,2.19824-.14551,4.11035,1.52002,4.25781,3.72412,4.11035,61.43506,16.5791,119.04883,28.6377,174.76562,24.51562,113.27881,45.79688,211.64307-22.3584,282.51709,79.98047-3.35059,142.99512-.65527,187.42871,8.02637,44.02539,8.60156,70.00684,23.19922,77.22266,43.38867,4.68262,13.10254,1.38867,28.08594-9.79004,44.53516-10.32617,15.19531-27.46582,31.74414-50.94238,49.1875-1.55176,1.15234-3.70312,1.03125-5.11523-.28613-12.45117-11.61914-24.33105-11.60156-37.3877.05859-1.43457,1.28223-3.58105,1.36035-5.10547.18555-17.87793-13.77734-31.98828-13.91992-44.41406-.45605-.71973.78027-1.72168,1.24219-2.7832,1.28418-1.05371.04395-2.0957-.34082-2.875-1.0625-14.63672-13.56055-27.43848-13.5791-41.49707-.05176-1.47656,1.41992-3.79004,1.49609-5.35547.17188-15.20312-12.85156-28.62012-12.86133-43.50684-.02539-.82812.71387-1.91699,1.05957-2.99902.95215-1.08789-.10645-2.08496-.65234-2.75977-1.51172-4.48633-5.7168-9.06152-8.74316-13.59766-8.99609-5.07715-.28223-10.90039,2.85547-17.26514,9.33008-1.53955,1.56738-4.05615,1.59766-5.63428.07129-6.53516-6.32227-13.9751-9.56836-21.58496-9.40625-7.21045.16113-14.2124,3.45605-19.7168,9.2793-.79004.83496-1.89502,1.29395-3.05029,1.24902-1.14893-.04102-2.22461-.57422-2.95264-1.46484-4.54785-5.56055-10.99951-8.77051-18.1665-9.03906-7.87549-.29492-15.46484,2.99609-21.42578,9.26367-.74609.78418-1.77783,1.23242-2.86035,1.24316h-.03809c-1.06885,0-2.09326-.42773-2.84521-1.18848-14.39307-14.56543-34.83936-10.31445-48.71924.35938-1.45654,1.11816-3.48779,1.10352-4.92627-.03906-16.83496-13.36914-36.85596-8.66992-49.979.18359-.68604.46289-1.46387.68457-2.2334.68457Z"/>
    <path class="cls-2" d="M1033.84277,1120.60938c-1.05566,0-2.11035-.41504-2.89648-1.24023-1.52441-1.59863-1.46387-4.13086.13574-5.65527,1.90625-1.81738,31.42969-13.87402,85.37305-22.31055,48.29297-7.55469,127.57812-13.70996,233.67285-1.02344l-6.49023-9.23047c-1.24023-1.7627-.86035-4.19238.85938-5.49219l10.23047-7.73242-14.55469-8.22363c-.97461-.55078-1.67383-1.48438-1.92773-2.57422s-.04004-2.2373.59082-3.16211l13.02637-19.10352c1.24316-1.82324,3.72949-2.29883,5.55859-1.05078,1.8252,1.24414,2.2959,3.7334,1.05078,5.55859l-10.57422,15.50781,16.07227,9.08105c1.17285.66309,1.93359,1.87207,2.02344,3.2168s-.50391,2.64355-1.5791,3.45703l-12.00977,9.07715,9.45605,13.44727c.91211,1.2959.97266,3.00879.1543,4.36621s-2.36719,2.10254-3.93262,1.90234c-211.06836-26.98438-318.87598,19.06055-322.06641,20.54297-.66016.42871-1.41699.6416-2.17285.6416ZM1036.5918,1119.51367l-.00586.00586.00586-.00586ZM1036.60156,1119.50488l-.00781.00781c.00293-.00293.00488-.00586.00781-.00781Z"/>
    <path class="cls-2" d="M1039.26562,1112.19336c-1.45215,0-2.79102-.78711-3.49609-2.05664-.70605-1.26953-.66797-2.82227.09961-4.05566,4.22754-6.7998,6.91211-12.00781,8.44922-16.38965.30371-.86719.89648-1.60254,1.67871-2.08398,58.6123-36.0625,139.6875-48.94727,197.37988-53.40625,49.34473-3.8125,90.50098-2.28613,105.75781-1.46582l-118.3418-299.37354c-82.875-11.81836-204.27344,51.1958-205.50195,51.84033-1.95703,1.02539-4.37402.27148-5.39941-1.68457-1.02637-1.95654-.27246-4.37402,1.68359-5.40039.31543-.16504,31.99609-16.69971,73.69629-31.31348,56.24707-19.71191,103.02246-26.77979,139.0293-21.00195,1.39453.22412,2.56738,1.16602,3.08594,2.47949l121.5,307.36328c.50684,1.2832.31738,2.73633-.50098,3.8457-.81934,1.10938-2.15332,1.71289-3.52734,1.61328-.48535-.03711-49.24414-3.69824-110.99121,1.08398-56.38379,4.36621-135.36816,16.85449-192.50098,51.51465-.5166,1.34766-1.12012,2.75391-1.81738,4.23438,31.75781-15.89746,124.87207-52.89648,292.7627-45.71387,2.20703.09375,3.91992,1.95996,3.8252,4.16699-.09473,2.20605-1.95215,3.93848-4.16699,3.8252-107.46289-4.59277-183.27539,9.51465-227.9502,22.16016-48.54785,13.74316-71.5957,28.53809-72.55371,29.16113-.11035.07227-.22461.13867-.3418.19922-.56836.29688-1.20703.45801-1.8584.45801Z"/>
    <path class="cls-2" d="M1033.82812,1120.61426c-1.02344,0-2.04492-.38867-2.82422-1.16699-1.41016-1.41113-1.55469-3.60547-.41895-5.16895l5.31836-8.25195c.37793-.58594.89453-1.05273,1.49219-1.36914.13184-.07031.26855-.13379.40723-.18848v-.00098c63.61523-25.35938,144.41113-32.05176,200.98926-33.19922,61.18066-1.24316,108.06445,3.55273,108.53125,3.60156,2.19727.22852,3.79297,2.19531,3.56445,4.39258-.22852,2.19824-2.2002,3.7959-4.39258,3.56445-.46191-.04883-46.93262-4.79492-107.64844-3.55859-55.53516,1.13281-134.61816,7.64453-196.91211,32.16797l-4.73047,7.33984c-.1543.23828-.33301.46094-.53418.66113-.7832.7832-1.8125,1.17676-2.8418,1.17676Z"/>
    <path class="cls-2" d="M1010.28628,1143.54037c17.53343,57.50966,153.8666,100.12092,254.93611,78.54978-26.30015-73.64042-179.19168-36.42621-254.93611-78.54978Z"/>
    <path class="cls-2" d="M795.67432,1285.00293c-.82959,0-1.66602-.25684-2.38281-.78906-23.47656-17.44336-40.61621-33.99219-50.94287-49.1875-11.17871-16.44922-14.47217-31.43359-9.78906-44.53613,7.21582-20.18848,33.19727-34.78613,77.22266-43.3877,44.4292-8.68066,107.45215-11.37793,187.42822-8.02637-68.15527-70.87402-46.87451-169.23779-22.3584-282.51611,12.05811-55.71729,24.52686-113.33154,28.63721-174.7666.14746-2.2041,2.05371-3.86914,4.25781-3.72412,2.20508.14746,3.87207,2.0542,3.72461,4.2583-4.14941,62.02002-16.68164,119.92529-28.80078,175.92432-24.86328,114.8833-46.33594,214.10059,27.52441,282.35059,1.23438,1.14062,1.62402,2.93262.97461,4.4834s-2.18262,2.52637-3.87988,2.44922c-84.31445-4.00781-150.25146-1.51367-195.97412,7.41895-41.06104,8.02246-65.02393,20.88477-71.22314,38.22949-7.67432,21.4707,12.37158,50.72852,57.97021,84.6084,1.77295,1.31738,2.14258,3.82324.8252,5.59668-.78516,1.05664-1.9917,1.61426-3.21387,1.61426Z"/>
    <path class="cls-2" d="M1008.88574,1150.13867c-1.46289,0-2.80957-.79883-3.51074-2.08301-34.02002-62.2998-33.97021-118.2002.15137-170.89746.7373-1.13818,2.00098-1.82568,3.35742-1.82568s2.62012.6875,3.35742,1.82568c34.12109,52.69629,34.17188,108.59766.15527,170.89746-.70117,1.28418-2.04785,2.08301-3.51074,2.08301ZM1008.88379,986.89746c-27.85352,46.56055-27.85303,95.97266.00195,150.67188,27.85254-54.69922,27.85156-104.1123-.00195-150.67188Z"/>
    <path class="cls-2" d="M983.9248,1120.60938c-.75635,0-1.5127-.21289-2.17334-.6416-3.19043-1.48145-111.00439-47.52246-322.06592-20.54297-1.56787.19824-3.11426-.5459-3.93311-1.90234-.81836-1.35742-.75781-3.07031.15381-4.36621l9.45654-13.44727-12.00977-9.07715c-1.0752-.81348-1.66846-2.1123-1.5791-3.45703s.8501-2.55371,2.02344-3.2168l16.07324-9.08105-10.57471-15.50781c-1.24463-1.8252-.77393-4.31445,1.05127-5.55859,1.82373-1.24609,4.31299-.77441,5.55811,1.05078l13.02637,19.10352c.63084.9248.84521,2.07227.59082,3.16211-.25391,1.08984-.95312,2.02344-1.92773,2.57422l-14.55518,8.22363,10.23047,7.73242c1.71973,1.2998,2.09961,3.72949.85986,5.49219l-6.49121,9.23047c106.09424-12.68555,185.37939-6.5293,233.67381,1.02344,53.94289,8.43652,83.46633,20.49316,85.37307,22.31055,1.59863,1.52441,1.65918,4.05664.13477,5.65527-.78613.8252-1.83984,1.24023-2.89551,1.24023ZM981.1748,1119.51367c.00244.00195.00439.00391.00635.00586-.00195-.00195-.00391-.00391-.00635-.00586ZM981.16504,1119.50488c.00293.00195.00586.00488.00879.00781-.00293-.00293-.00586-.00586-.00879-.00781Z"/>
    <path class="cls-2" d="M978.50146,1112.19336c-.65967,0-1.30518-.16504-1.87939-.46875-.10938-.05762-.2168-.12012-.32129-.18848-.95703-.62305-24.00537-15.41797-72.55322-29.16113-44.67578-12.64551-120.4873-26.75781-227.94971-22.16016-2.2041.11523-4.07275-1.61719-4.16699-3.8252-.09473-2.20703,1.61816-4.07324,3.8252-4.16699,167.88379-7.19043,260.99707,29.8125,292.76123,45.71191-.69727-1.48047-1.2998-2.88574-1.81689-4.23242-57.16357-34.67871-136.20264-47.16406-192.62695-51.52441-61.72559-4.77051-110.37939-1.1123-110.86377-1.07422-1.37793.10449-2.7085-.50391-3.52734-1.61328-.81934-1.10938-1.00879-2.5625-.50146-3.8457l121.49951-307.36328c.51904-1.31348,1.69189-2.25537,3.08594-2.47949,36.00732-5.7749,82.78174,1.29004,139.02979,21.00195,41.69971,14.61377,73.37988,31.14844,73.69482,31.31348,1.95654,1.02637,2.71045,3.44385,1.68408,5.40039s-3.44385,2.70996-5.3999,1.68457c-1.22754-.64404-122.62158-63.66211-205.50098-51.84033l-118.34131,299.37354c15.25635-.82031,56.41406-2.34863,105.75732,1.46582,57.69189,4.45898,138.76709,17.34375,197.38037,53.40625.78223.48145,1.375,1.21777,1.67871,2.08398,1.53467,4.37891,4.21973,9.58691,8.44922,16.38965.76709,1.2334.80469,2.78613.09912,4.05566s-2.04395,2.05664-3.49609,2.05664Z"/>
    <path class="cls-2" d="M983.93018,1120.62305c-1.01855,0-2.03613-.3877-2.81494-1.16699-.20068-.2002-.39844-.44141-.55225-.67969l-4.73047-7.33984c-62.29346-24.52344-141.37695-31.03516-196.91162-32.16797-60.7168-1.23926-107.18652,3.50977-107.64893,3.55859-2.19141.23438-4.16357-1.36621-4.39258-3.56445-.22852-2.19727,1.3667-4.16406,3.56396-4.39258.46631-.04883,47.34082-4.8457,108.53223-3.60156,56.57764,1.14746,137.37402,7.83984,200.98877,33.19922l-.00049.00098c.13477.05371.26709.11426.39551.18262.60254.31543,1.12402.78516,1.50439,1.375l5.37939,8.34668c1.05273,1.55762.89697,3.69629-.47998,5.07422-.78369.7832-1.80859,1.17578-2.83301,1.17578Z"/>
    <path class="cls-2" d="M1007.48093,1143.54037c-17.53343,57.50966-153.8666,100.12092-254.93611,78.54978,26.30015-73.64042,179.19168-36.42621,254.93611-78.54978Z"/>
    <path class="cls-2" d="M1016.3623,1354.27734c-27.71924,0-56.16211-2.42383-85.02393-7.26172-77.08887-12.9209-131.26367-39.01074-131.80176-39.27246-1.08398-.52832-1.87207-1.5166-2.14502-2.69043-.27295-1.1748-.00195-2.40918.73779-3.36133,5.31152-6.83105,14.67041-12.54883,29.46631-2.24316,15.23486-7.56152,30.91943-7.48047,46.68359.23828,16.81836-7.80957,31.92188-7.89746,46.03857-.26074,11.75732-7.60254,24.17334-7.54395,36.96924.17969,17.08154-7.61133,31.07178-7.74316,42.61768-.39258,10.54248-7.2998,22.30615-7.1748,34.29053.37109,17.60449-7.76855,35.03125-7.72363,51.86328.13379,17.375-7.8877,33.03613-7.90039,46.61133-.04004,12.84082-5.16699,30.76953-10.01367,47.49316-.56348,8.90918-7.72949,19.39062-7.06055,29.82422,2.01465.99121.86133,1.49609,2.15527,1.35059,3.46094s-.92285,2.45605-2.08008,3.0791c-44.45508,23.9248-93.67773,38.81152-146.2998,44.24609-15.25391,1.5752-30.80957,2.3623-46.5957,2.3623ZM808.36084,1302.96875c15.30566,6.72168,62.32471,25.79785,124.54346,36.19727,68.60352,11.46875,170.02344,14.38574,266.87012-35.54297-7.5791-4.13867-12.54102-.6123-16.13574,3.24902-1.33594,1.43652-3.5166,1.69141-5.15137.59961-11.66602-7.79883-25.42773-7.6875-44.62109.36328-1.21094.50879-2.59375.38867-3.70215-.31836-12.10938-7.74609-25.97949-7.66895-42.39941.23438-1.11523.53711-2.41797.52832-3.52441-.02734-15.93945-7.97949-31.8623-7.96777-48.67969.03516-1.29492.61621-2.82227.49121-4.00098-.32715-10.78516-7.49512-20.00879-7.55469-29.0293-.1875-1.42871,1.16602-3.46924,1.20605-4.94092.09473-9.98535-7.54297-22.34473-7.40625-38.89404.42383-1.26465.59863-2.74951.49121-3.91602-.2793-11.33594-7.49316-21.77002-7.53125-31.90088-.10938-1.30029.95312-3.0498,1.03223-4.43164.19629-12.74463-7.70117-26.63037-7.64648-42.44922.16309-1.14893.56641-2.50146.54785-3.63428-.04785-14.84521-7.81738-28.97705-7.82812-43.20361-.03125-1.39453.76465-3.1084.63086-4.36719-.3418-7.97363-6.15723-12.93652-6.34766-16.43164-4.34375Z"/>
  </g>
  <g>
    <path class="cls-2" d="M1198.24414,449.77872c30.1853,11.3295,59.66638,24.60867,88.07947,39.94025,28.4126,15.32733,55.71313,32.76944,81.55444,52.19662,51.68726,38.82965,97.38513,85.8858,134.17285,139.31305,18.40979,26.69196,34.599,54.94836,48.27661,84.40112,13.64905,29.46576,24.74084,60.12903,33.21106,91.5119,16.94373,62.76123,23.18848,128.51904,17.94604,193.47711-2.63452,32.47192-8.04541,64.73083-16.15991,96.31018-8.09277,31.58423-18.83936,62.50867-32.14978,92.31165-26.59949,59.6084-63.18555,114.85095-107.81482,162.61853-1.34436,1.53992-2.80505,2.96826-4.22595,4.43518l-4.28357,4.38037-8.56982,8.75977c-.71973.72424-1.41638,1.47253-2.15527,2.177l-2.22559,2.10413-4.45178,4.20801-8.9231,8.39612-2.23499,2.09448c-.7478.69495-1.53589,1.34473-2.30188,2.01929l-4.62744,4.01184-9.25623,8.02148c-1.55737,1.31885-3.05298,2.71313-4.66138,3.96985l-4.77783,3.828-9.55688,7.65417c-25.7749,20.0354-52.94714,38.21741-81.21704,54.40784-14.05957,8.23596-28.5686,15.64441-43.11157,22.93286l-22.06616,10.41248c-7.45312,3.24817-14.95081,6.39014-22.42029,9.58691-30.06091,12.35461-60.75635,23.0304-91.9032,32.03308l-.04968.0144c-.67712.19568-1.38843.27283-2.05652.24878l-13.16968-.53491-6.58948-.26917c-2.19702-.08337-4.39526-.2207-6.59119-.15527l-13.18652.10266-6.59973.02576c-2.19714.06519-4.38953.21704-6.58557.32104l-13.18127.68994c-2.20374.0658-4.38232.36707-6.57312.56482l-6.56738.65771c-8.79034.68335-17.45386,2.24207-26.1922,3.42566-17.36365,2.97205-34.57635,6.97083-51.42578,12.26489l-6.30817,2.02441c-2.11395.6499-4.15686,1.48364-6.24103,2.21704l-6.2229,2.28528-6.13818,2.49902c-8.15057,3.37976-16.23846,7.11182-23.82074,11.54626l-.04706.02747c-.42865.25073-.97943.10645-1.23016-.32227-.23834-.40759-.11682-.92737.26392-1.19287,7.42194-5.14539,15.3075-9.36804,23.33423-13.36792l6.06097-2.91211,6.16095-2.6875c2.06537-.8678,4.0957-1.83813,6.19397-2.62292l6.2713-2.43164c16.76666-6.40723,34.09686-11.26807,51.63153-15.24207,8.81989-1.6897,17.6286-3.59412,26.55396-4.70569l6.6792-.96313c2.229-.29919,4.44983-.70203,6.69202-.86853l13.43591-1.29236c2.24121-.20386,4.48132-.45544,6.72546-.61975l6.74133-.32214,13.49524-.59326c2.25085-.14441,4.5-.08569,6.75037-.08057l6.75244.03564,13.51428.07458-2.10583.26318c30.36816-10.07031,60.29492-21.32983,89.47107-34.24524,29.20374-12.8551,57.5033-27.62634,84.84375-43.89319,27.30176-16.33276,53.62854-34.25256,78.50122-53.99414l9.27808-7.46155,4.63965-3.72974c1.56287-1.224,3.01074-2.58337,4.52185-3.86829l8.97827-7.81323,4.48987-3.90564c.74304-.65662,1.50854-1.28882,2.23315-1.96558l2.16553-2.03931,8.67871-8.13904,4.34912-4.05957,2.1748-2.02966c.72205-.67969,1.40125-1.40234,2.104-2.10144l8.36816-8.45471,4.18542-4.22693c1.38818-1.41541,2.81726-2.79285,4.12866-4.28015,21.82849-23.01465,41.91858-47.68225,59.91272-73.81982,17.97742-26.14441,33.83252-53.77661,47.16418-82.60278,13.34717-28.81519,24.28564-58.76831,32.55188-89.46521,8.25146-30.69958,13.88232-62.11816,16.80713-93.80615.24768-1.97485.33508-3.96289.479-5.94641l.40234-5.95349.80286-11.90918.33777-11.93176.17004-5.96698c.05566-1.98907.13843-3.97821.08362-5.96796l-.12842-11.93909c-.04797-3.97998-.03052-7.96277-.2959-11.93597l-.59412-11.92816c-.10693-1.98767-.1792-3.97809-.31433-5.96387l-.53027-5.94849c-2.59302-31.74438-7.82153-63.29425-15.71643-94.19189-7.89233-30.89508-18.37427-61.15771-31.40344-90.31171-13.08105-29.12866-28.58679-57.18713-46.31213-83.79504-35.44055-53.24164-79.87378-100.50128-130.52979-139.81555-50.6637-39.36002-107.37268-70.84964-167.16296-94.53003-.46301-.18103-.69153-.70306-.5105-1.16602.17896-.45758.69568-.68445,1.15454-.5148Z"/>
    <g>
      <path class="cls-2" d="M1163.17781,1497.01436c-14.72808,17.18276-86.61516,38.57355-65.97844,93.87817,71.93981-14.97773,55.10771-57.7593,65.97844-93.87817Z"/>
      <path class="cls-2" d="M1198.41642,1638.57788c-21.47512-7.14023-94.10905,11.55818-104.91136-46.47444,69.37545-24.22221,76.98748,21.11695,104.91136,46.47444Z"/>
      <path class="cls-2" d="M1233.01535,1462.67472c-11.33308,19.5889-78.08845,53.78009-47.67471,104.3714,67.9814-27.89619,43.60085-66.87274,47.67471-104.3714Z"/>
      <path class="cls-2" d="M1296.78089,1577.52837c-22.61742-.78481-87.01411,37.66495-113.76565-14.95473,59.71088-42.82849,79.81725-1.48461,113.76565,14.95473Z"/>
      <path class="cls-2" d="M1309.78188,1423.54978c-11.44671,19.52272-78.39962,53.32545-48.28036,104.09262,68.14235-27.50072,43.98868-66.61827,48.28036-104.09262Z"/>
      <path class="cls-2" d="M1373.66429,1537.53526c-22.62414-.55846-86.63289,38.53371-113.90959-13.81566,59.27936-43.4238,79.7984-2.28317,113.90959,13.81566Z"/>
      <path class="cls-2" d="M1377.1698,1372.63669c-10.16404,20.22019-74.79799,58.26975-41.4679,106.98916,66.22727-31.83736,39.60153-69.31606,41.4679-106.98916Z"/>
      <path class="cls-2" d="M1450.42096,1484.13685c-22.59923,1.19947-83.38021,45.1425-114.63833-4.9315,55.72961-47.89446,79.38037-8.4708,114.63833,4.9315Z"/>
      <path class="cls-2" d="M1422.71812,1324.52495c-5.71248,20.64765-58.56818,67.55854-18.83402,107.07115,55.46417-41.4023,23.9856-71.62392,18.83402-107.07115Z"/>
      <path class="cls-2" d="M1508.44366,1408.9798c-20.51326,6.17772-66.21744,60.08026-106.61808,21.24937,40.13805-56.38583,71.06346-25.59842,106.61808-21.24937Z"/>
      <path class="cls-2" d="M1468.55095,1254.99288c-2.03494,21.32644-45.92784,76.71389.07195,108.71497,47.41953-50.41639,11.1652-74.70363-.07195-108.71497Z"/>
      <path class="cls-2" d="M1570.16852,1326.47016c-19.39091,9.10772-56.73168,69.10792-102.37084,36.59457,31.47161-61.64383,66.5623-35.70371,102.37084-36.59457Z"/>
      <path class="cls-2" d="M1496.09359,1190.54729c1.53484,21.36825-32.55083,83.27563,18.12445,107.19354,38.38884-57.59098-1.3953-75.52051-18.12445-107.19354Z"/>
      <path class="cls-2" d="M1607.81159,1244.14406c-17.69394,12.07817-45.00802,77.25714-95.24064,52.42301,21.25812-65.86742,60.03045-45.84364,95.24064-52.42301Z"/>
      <path class="cls-2" d="M1514.78158,1119.6949c6.78044,18.77989-7.97988,83.7441,43.32211,91.35318,19.69533-62.26456-20.36616-67.47639-43.32211-91.35318Z"/>
      <path class="cls-2" d="M1643.53703,1159.73541c-16.34312,11.47-41.60655,73.11393-87.96026,49.85181,19.67339-62.2715,55.45113-43.5088,87.96026-49.85181Z"/>
      <path class="cls-2" d="M1533.17028,1046.86162c8.02723,18.28174-2.33375,84.09106,49.36363,88.23515,15.46625-63.44743-24.85492-65.95511-49.36363-88.23515Z"/>
      <path class="cls-2" d="M1652.94074,1064.27771c-13.11662,15.05367-22.86445,80.95659-73.44327,69.48594,4.17036-65.172,43.40294-55.53403,73.44327-69.48594Z"/>
      <path class="cls-2" d="M1532.6237,966.80111c10.40906,17.03849,8.97747,83.64303,60.76318,80.8087,6.80775-64.94949-33.48504-62.02093-60.76318-80.8087Z"/>
      <path class="cls-2" d="M1659.03344,970.78142c-12.41935,15.63389-19.16381,81.91154-70.21142,72.75002,1.20595-65.29416,40.8358-57.44807,70.21142-72.75002Z"/>
      <path class="cls-2" d="M1514.78158,896.1682c14.80292,13.39896,32.2669,77.68912,81.13674,60.32444-11.83923-64.22316-49.65873-50.01854-81.13674-60.32444Z"/>
      <path class="cls-2" d="M1650.83676,872.82944c-9.55428,17.53209-4.83276,83.9845-56.69526,83.71294-10.00932-64.53367,30.37897-63.60001,56.69526-83.71294Z"/>
      <path class="cls-2" d="M1504.49529,825.53528c14.80292,13.39896,32.2669,77.68912,81.13674,60.32444-11.83923-64.22316-49.65873-50.01854-81.13674-60.32444Z"/>
      <path class="cls-2" d="M1626.15296,794.13424c-6.54621,18.86281,9.02141,83.63831-42.18192,91.88523-20.46865-62.01464,19.52488-67.72461,42.18192-91.88523Z"/>
      <path class="cls-2" d="M1470.10505,763.35323c16.93551,7.7231,49.75103,59.34199,89.35306,30.8309-27.7106-53.08937-58.155-30.3532-89.35306-30.8309Z"/>
      <path class="cls-2" d="M1592.37803,711.16569c-5.91883,17.64724,9.39514,76.86591-38.4743,86.33795-19.87361-56.49246,17.52416-63.2157,38.4743-86.33795Z"/>
      <path class="cls-2" d="M1435.89985,705.82022c17.63058,5.96828,55.50501,53.99844,92.01601,21.62331-32.94467-50.01007-60.92997-24.30759-92.01601-21.62331Z"/>
      <path class="cls-2" d="M1541.28402,636.62966c-1.45465,18.55645,27.78606,72.2812-16.34854,93.098-33.00152-49.97257,1.64282-65.57912,16.34854-93.098Z"/>
      <path class="cls-2" d="M1398.02763,649.31776c17.63058,5.96828,55.50501,53.99844,92.01601,21.62331-32.94467-50.01007-60.92997-24.30759-92.01601-21.62331Z"/>
      <path class="cls-2" d="M1484.81143,576.87195c2.68763,18.41832,43.09183,64.34074,4.65774,94.40773-43.24148-41.43106-12.90945-64.31692-4.65774-94.40773Z"/>
      <path class="cls-2" d="M1351.03442,604.68547c18.23432,3.73731,61.76914,46.70343,93.98643,10.05308-38.88844-45.54172-63.4727-16.56916-93.98643-10.05308Z"/>
      <path class="cls-2" d="M1428.53352,521.62279c4.99578,17.93042,50.88417,58.37327,16.56197,93.06027-48.13478-35.62867-20.9412-62.1674-16.56197-93.06027Z"/>
      <path class="cls-2" d="M1298.60055,569.52161c18.59477.83213,68.32782,36.441,94.40022-4.80742-45.54796-38.88112-65.28554-6.41232-94.40022,4.80742Z"/>
      <path class="cls-2" d="M1369.75374,473.68295c6.23145,17.53929,54.82302,54.69071,22.9979,91.68211-50.49749-32.19258-25.21668-60.55939-22.9979-91.68211Z"/>
      <path class="cls-2" d="M1250.67736,533.11629c16.54971-1.01748,62.56191,25.64544,83.54492-13.11538-42.46862-29.93703-58.28829.49974-83.54492,13.11538Z"/>
      <path class="cls-2" d="M1311.89295,438.53143c5.82293,15.52487,48.93785,46.65584,22.11007,81.62667-44.65847-26.55995-23.32396-53.42066-22.11007-81.62667Z"/>
      <path class="cls-2" d="M1215.70124,507.23572c13.79772-1.4603,51.05102,18.78948,69.95224-13.9488-34.18417-23.08169-48.47992,2.60122-69.95224,13.9488Z"/>
      <path class="cls-2" d="M1254.09374,429.37654c7.21655,11.85035,45.92453,29.15799,31.38583,64.05322-39.0949-13.14956-27.36635-40.10177-31.38583-64.05322Z"/>
      <path class="cls-2" d="M1170.65874,481.83341c13.06781-1.90448,47.40664,15.5876,66.50705-15.77907-31.33426-20.26129-45.81662,4.32485-66.50705,15.77907Z"/>
      <path class="cls-2" d="M1197.96006,410.40605c8.43099,10.16431,45.64836,20.16409,38.83323,56.25075-36.83988-5.93118-31.13468-33.8895-38.83323-56.25075Z"/>
      <path class="cls-2" d="M1130.95367,437.74328c12.66544,3.73918,36.53215,33.99654,67.00638,13.50229-19.979-31.515-43.42139-15.24629-67.00638-13.50229Z"/>
    </g>
  </g>
  <g>
    <path class="cls-2" d="M809.2569,451.45953c-59.79028,23.68039-116.49933,55.17001-167.1629,94.53003-50.65613,39.31427-95.08929,86.57391-130.52982,139.81555-17.7254,26.60791-33.23105,54.66638-46.31216,83.79504-13.02911,29.15399-23.51114,59.41663-31.40341,90.31171-7.89493,30.89764-13.12347,62.44751-15.71646,94.19189l-.5303,5.94849c-.13513,1.98578-.2074,3.9762-.31433,5.96387l-.59409,11.92816c-.26541,3.97321-.24796,7.95599-.2959,11.93597l-.12842,11.93909c-.05478,1.98975.02802,3.97888.08362,5.96796l.17004,5.96698.3378,11.93176.8028,11.90918.4024,5.95349c.14389,1.98352.23129,3.97156.47897,5.94641,2.9248,31.68799,8.5556,63.10657,16.80707,93.80615,8.26627,30.6969,19.2048,60.65002,32.55191,89.46521,13.33167,28.82617,29.1868,56.45837,47.16415,82.60278,17.9942,26.13757,38.08435,50.80518,59.91272,73.81982,1.31146,1.4873,2.74048,2.86475,4.12872,4.28015l4.18542,4.22693,8.36816,8.45471c.70276.6991,1.38202,1.42175,2.10394,2.10144l2.17487,2.02966,4.34912,4.05957,8.67871,8.13904,2.16547,2.03931c.72467.67676,1.49017,1.30896,2.23322,1.96558l4.48981,3.90564,8.97827,7.81323c1.51111,1.28491,2.95905,2.64429,4.52191,3.86829l4.63965,3.72974,9.27808,7.46155c24.87262,19.74158,51.19946,37.66138,78.50122,53.99414,27.34039,16.26685,55.64001,31.03809,84.84369,43.89319,29.17621,12.91541,59.10291,24.17493,89.47113,34.24524l-2.10583-.26318,13.51428-.07458,6.75238-.03564c2.25037-.00513,4.49963-.06384,6.75049.08057l13.49524.59326,6.74121.32214c2.2442.16431,4.48431.41589,6.72552.61975l13.43591,1.29236c2.24219.1665,4.46295.56934,6.69202.86853l6.67926.96313c8.92529,1.11157,17.73395,3.01599,26.55389,4.70569,17.53467,3.974,34.86481,8.83484,51.63153,15.24207l6.27136,2.43164c2.09827.78479,4.12854,1.75513,6.19397,2.62292l6.16089,2.6875,6.06091,2.91211c8.02686,3.99988,15.91235,8.22253,23.33423,13.36792.4082.28296.50964.84314.22668,1.25122-.26892.38806-.7887.4989-1.18994.26575l-.05005-.0293c-7.58228-4.43445-15.67017-8.1665-23.82068-11.54626l-6.13818-2.49902-6.2229-2.28528c-2.08423-.7334-4.12708-1.56714-6.24109-2.21704l-6.30811-2.02441c-16.84949-5.29407-34.06213-9.29285-51.42578-12.26489-8.7384-1.18359-17.40186-2.74231-26.1922-3.42566l-6.56744-.65771c-2.19073-.19775-4.36938-.49902-6.57306-.56482l-13.18121-.68994c-2.19611-.104-4.38855-.25586-6.58563-.32104l-6.59967-.02576-13.18658-.10266c-2.19598-.06543-4.39423.0719-6.59119.15527l-6.58954.26917-13.16968.53491c-.70428.02856-1.38684-.05664-2.02985-.23938l-.07635-.0238c-31.14685-9.00269-61.84216-19.67847-91.9032-32.03308-7.46942-3.19678-14.9671-6.33875-22.42029-9.58691l-22.0661-10.41248c-14.54291-7.28845-29.052-14.6969-43.11151-22.93286-28.26996-16.19043-55.4422-34.37244-81.21716-54.40784l-9.55682-7.65417-4.77777-3.828c-1.60846-1.25671-3.10406-2.651-4.6615-3.96985l-9.25623-8.02148-4.62738-4.01184c-.76599-.67456-1.55408-1.32434-2.30188-2.01929l-2.23499-2.09448-8.92316-8.39612-4.45178-4.20801-2.22559-2.10413c-.73877-.70447-1.43542-1.45276-2.15521-2.177l-8.56982-8.75977-4.28363-4.38037c-1.42078-1.46692-2.88159-2.89526-4.22589-4.43518-44.62927-47.76758-81.21536-103.01013-107.81479-162.61853-13.31052-29.80298-24.0571-60.72742-32.14975-92.31165-8.11462-31.57935-13.52548-63.83826-16.15994-96.31018-5.24243-64.95807,1.00226-130.71588,17.94598-193.47711,8.47031-31.38287,19.56207-62.04614,33.21103-91.5119,13.67761-29.45276,29.86694-57.70917,48.27664-84.40112,36.78781-53.42725,82.48569-100.4834,134.17288-139.31305,25.84125-19.42719,53.14191-36.86929,81.55444-52.19662,28.41309-15.33157,57.8941-28.61075,88.07947-39.94025.46539-.17468.98425.06097,1.15887.52634.17267.46002-.06006.97403-.51483,1.15448Z"/>
    <g>
      <path class="cls-2" d="M843.67918,1497.01436c14.72808,17.18276,86.61516,38.57355,65.97844,93.87817-71.93981-14.97773-55.10771-57.7593-65.97844-93.87817Z"/>
      <path class="cls-2" d="M810.16055,1634.47647c21.20748-7.89979,94.4607,8.20248,103.19138-50.17775-70.19335-21.73851-76.1874,23.84278-103.19138,50.17775Z"/>
      <path class="cls-2" d="M773.84164,1462.67472c11.33308,19.5889,78.08845,53.78009,47.67471,104.3714-67.9814-27.89619-43.60085-66.87274-47.67471-104.3714Z"/>
      <path class="cls-2" d="M710.0761,1577.52837c22.61742-.78481,87.01411,37.66495,113.76565-14.95473-59.71088-42.82849-79.81725-1.48461-113.76565,14.95473Z"/>
      <path class="cls-2" d="M697.07511,1423.54978c11.44671,19.52272,78.39962,53.32545,48.28036,104.09262-68.14235-27.50072-43.98868-66.61827-48.28036-104.09262Z"/>
      <path class="cls-2" d="M633.1927,1537.53526c22.62414-.55846,86.63289,38.53371,113.90959-13.81566-59.27936-43.4238-79.7984-2.28317-113.90959,13.81566Z"/>
      <path class="cls-2" d="M629.68719,1372.63669c10.16404,20.22019,74.79799,58.26975,41.4679,106.98916-66.22727-31.83736-39.60153-69.31606-41.4679-106.98916Z"/>
      <path class="cls-2" d="M556.43602,1484.13685c22.59923,1.19947,83.38021,45.1425,114.63833-4.9315-55.72961-47.89446-79.38037-8.4708-114.63833,4.9315Z"/>
      <path class="cls-2" d="M584.13887,1324.52495c5.71248,20.64765,58.56818,67.55854,18.83402,107.07115-55.46417-41.4023-23.9856-71.62392-18.83402-107.07115Z"/>
      <path class="cls-2" d="M498.41333,1408.9798c20.51326,6.17772,66.21744,60.08026,106.61808,21.24937-40.13805-56.38583-71.06346-25.59842-106.61808-21.24937Z"/>
      <path class="cls-2" d="M538.30604,1254.99288c2.03494,21.32644,45.92784,76.71389-.07195,108.71497-47.41953-50.41639-11.1652-74.70363.07195-108.71497Z"/>
      <path class="cls-2" d="M436.68846,1326.47016c19.39091,9.10772,56.73168,69.10792,102.37084,36.59457-31.47161-61.64383-66.5623-35.70371-102.37084-36.59457Z"/>
      <path class="cls-2" d="M510.7634,1190.54729c-1.53484,21.36825,32.55083,83.27563-18.12445,107.19354-38.38884-57.59098,1.3953-75.52051,18.12445-107.19354Z"/>
      <path class="cls-2" d="M399.0454,1244.14406c17.69394,12.07817,45.00802,77.25714,95.24064,52.42301-21.25812-65.86742-60.03045-45.84364-95.24064-52.42301Z"/>
      <path class="cls-2" d="M492.07541,1119.6949c-6.78044,18.77989,7.97988,83.7441-43.32211,91.35318-19.69533-62.26456,20.36616-67.47639,43.32211-91.35318Z"/>
      <path class="cls-2" d="M363.31995,1159.73541c16.34312,11.47,41.60655,73.11393,87.96026,49.85181-19.67339-62.2715-55.45113-43.5088-87.96026-49.85181Z"/>
      <path class="cls-2" d="M473.68671,1046.86162c-8.02723,18.28174,2.33375,84.09106-49.36363,88.23515-15.46625-63.44743,24.85492-65.95511,49.36363-88.23515Z"/>
      <path class="cls-2" d="M353.91625,1064.27771c13.11662,15.05367,22.86445,80.95659,73.44327,69.48594-4.17036-65.172-43.40294-55.53403-73.44327-69.48594Z"/>
      <path class="cls-2" d="M474.23328,966.80111c-10.40906,17.03849-8.97747,83.64303-60.76318,80.8087-6.80775-64.94949,33.48504-62.02093,60.76318-80.8087Z"/>
      <path class="cls-2" d="M347.82355,970.78142c12.41935,15.63389,19.16381,81.91154,70.21142,72.75002-1.20595-65.29416-40.8358-57.44807-70.21142-72.75002Z"/>
      <path class="cls-2" d="M492.07541,896.1682c-14.80292,13.39896-32.2669,77.68912-81.13674,60.32444,11.83923-64.22316,49.65873-50.01854,81.13674-60.32444Z"/>
      <path class="cls-2" d="M356.02023,872.82944c9.55428,17.53209,4.83276,83.9845,56.69526,83.71294,10.00932-64.53367-30.37897-63.60001-56.69526-83.71294Z"/>
      <path class="cls-2" d="M502.36169,825.53528c-14.80292,13.39896-32.2669,77.68912-81.13674,60.32444,11.83923-64.22316,49.65873-50.01854,81.13674-60.32444Z"/>
      <path class="cls-2" d="M380.70403,794.13424c6.54621,18.86281-9.02141,83.63831,42.18192,91.88523,20.46865-62.01464-19.52488-67.72461-42.18192-91.88523Z"/>
      <path class="cls-2" d="M536.75194,763.35323c-16.93551,7.7231-49.75103,59.34199-89.35306,30.8309,27.7106-53.08937,58.155-30.3532,89.35306-30.8309Z"/>
      <path class="cls-2" d="M414.47896,711.16569c5.91883,17.64724-9.39514,76.86591,38.4743,86.33795,19.87361-56.49246-17.52416-63.2157-38.4743-86.33795Z"/>
      <path class="cls-2" d="M570.95714,705.82022c-17.63058,5.96828-55.50501,53.99844-92.01601,21.62331,32.94467-50.01007,60.92997-24.30759,92.01601-21.62331Z"/>
      <path class="cls-2" d="M465.57296,636.62966c1.45465,18.55645-27.78606,72.2812,16.34854,93.098,33.00152-49.97257-1.64282-65.57912-16.34854-93.098Z"/>
      <path class="cls-2" d="M608.82935,649.31776c-17.63058,5.96828-55.50501,53.99844-92.01601,21.62331,32.94467-50.01007,60.92997-24.30759,92.01601-21.62331Z"/>
      <path class="cls-2" d="M522.04556,576.87195c-2.68763,18.41832-43.09183,64.34074-4.65774,94.40773,43.24148-41.43106,12.90945-64.31692,4.65774-94.40773Z"/>
      <path class="cls-2" d="M655.82257,604.68547c-18.23432,3.73731-61.76914,46.70343-93.98643,10.05308,38.88844-45.54172,63.4727-16.56916,93.98643-10.05308Z"/>
      <path class="cls-2" d="M578.32347,521.62279c-4.99578,17.93042-50.88417,58.37327-16.56197,93.06027,48.13478-35.62867,20.9412-62.1674,16.56197-93.06027Z"/>
      <path class="cls-2" d="M708.25644,569.52161c-18.59477.83213-68.32782,36.441-94.40022-4.80742,45.54796-38.88112,65.28554-6.41232,94.40022,4.80742Z"/>
      <path class="cls-2" d="M637.10325,473.68295c-6.23145,17.53929-54.82302,54.69071-22.9979,91.68211,50.49749-32.19258,25.21668-60.55939,22.9979-91.68211Z"/>
      <path class="cls-2" d="M756.17963,533.11629c-16.54971-1.01748-62.56191,25.64544-83.54492-13.11538,42.46862-29.93703,58.28829.49974,83.54492,13.11538Z"/>
      <path class="cls-2" d="M694.96404,438.53143c-5.82293,15.52487-48.93785,46.65584-22.11007,81.62667,44.65847-26.55995,23.32396-53.42066,22.11007-81.62667Z"/>
      <path class="cls-2" d="M791.15575,507.23572c-13.79772-1.4603-51.05102,18.78948-69.95224-13.9488,34.18417-23.08169,48.47992,2.60122,69.95224,13.9488Z"/>
      <path class="cls-2" d="M752.76325,429.37654c-7.21655,11.85035-45.92453,29.15799-31.38583,64.05322,39.0949-13.14956,27.36635-40.10177,31.38583-64.05322Z"/>
      <path class="cls-2" d="M836.19825,481.83341c-13.06781-1.90448-47.40664,15.5876-66.50705-15.77907,31.33426-20.26129,45.81662,4.32485,66.50705,15.77907Z"/>
      <path class="cls-2" d="M808.89693,410.40605c-8.43099,10.16431-45.64836,20.16409-38.83323,56.25075,36.83988-5.93118,31.13468-33.8895,38.83323-56.25075Z"/>
      <path class="cls-2" d="M875.90331,437.74328c-12.66544,3.73918-36.53215,33.99654-67.00638,13.50229,19.979-31.515,43.42139-15.24629,67.00638-13.50229Z"/>
    </g>
  </g>
  <path class="cls-2" d="M1000,1489.63184c-66.09229,0-130.21631-12.94824-190.5918-38.48535-58.30713-24.66113-110.66895-59.96289-155.62988-104.9248-44.96094-44.96094-80.26318-97.32227-104.9248-155.62988-25.53662-60.375-38.48486-124.5-38.48486-190.5918s12.94824-130.21631,38.48486-190.5918c24.66162-58.30713,59.96387-110.66895,104.9248-155.62988s97.32275-80.26318,155.62988-104.9248c60.37549-25.53662,124.49951-38.48486,190.5918-38.48486s130.2168,12.94824,190.5918,38.48486c58.30762,24.66162,110.66895,59.96387,155.62988,104.9248,44.96191,44.96094,80.26367,97.32275,104.9248,155.62988,25.53711,60.37549,38.48535,124.49951,38.48535,190.5918s-12.94824,130.2168-38.48438,190.5918c-24.66211,58.30762-59.96387,110.66895-104.92578,155.62988-44.96094,44.96191-97.32227,80.26367-155.62988,104.92578-60.375,25.53613-124.5,38.48438-190.5918,38.48438ZM1000,545.36865c-250.68457,0-454.63135,203.94678-454.63135,454.63135s203.94678,454.63184,454.63135,454.63184,454.63184-203.94727,454.63184-454.63184-203.94727-454.63135-454.63184-454.63135Z"/>
  <path class="cls-2" d="M1000,1730.05859c-98.5498,0-194.16064-19.30469-284.17725-57.37891-86.93701-36.77148-165.01027-89.4082-232.05225-156.4502-67.0415-67.04199-119.6792-145.11523-156.4502-232.05273-38.07373-90.0166-57.37891-185.62695-57.37891-284.17676s19.30518-194.16064,57.37891-284.17725c36.771-86.93701,89.40869-165.01025,156.4502-232.05225,67.04198-67.0415,145.11523-119.6792,232.05225-156.4502,90.0166-38.07373,185.62744-57.37891,284.17725-57.37891s194.16016,19.30518,284.17676,57.37891c86.9375,36.771,165.01074,89.40869,232.05273,156.4502,67.04199,67.04199,119.67871,145.11523,156.4502,232.05225,38.07422,90.0166,57.37891,185.62744,57.37891,284.17725s-19.30469,194.16016-57.37891,284.17676c-36.77148,86.9375-89.4082,165.01074-156.4502,232.05273s-145.11523,119.67871-232.05273,156.4502c-90.0166,38.07422-185.62695,57.37891-284.17676,57.37891ZM1000,304.94141c-383.25635,0-695.05859,311.80225-695.05859,695.05859s311.80225,695.05859,695.05859,695.05859,695.05859-311.80176,695.05859-695.05859-311.80176-695.05859-695.05859-695.05859Z"/>
  <text class="cls-1" transform="translate(409.84668 489.6582) rotate(-45.95657)"><tspan x="0" y="0">V</tspan></text>
  <text class="cls-1" transform="translate(469.56982 429.18506) rotate(-41.56244)"><tspan x="0" y="0">i</tspan></text>
  <text class="cls-1" transform="translate(495.4873 405.06738) rotate(-37.38326)"><tspan x="0" y="0">d</tspan></text>
  <text class="cls-1" transform="translate(557.9082 357.55859) rotate(-32.01745)"><tspan x="0" y="0">y</tspan></text>
  <text class="cls-1" transform="translate(615.57568 321.40088) rotate(-27.00725)"><tspan x="0" y="0">a</tspan></text>
  <text class="cls-1" transform="translate(676.81982 290.76416) rotate(-23.20631)"><tspan x="0" y="0"> </tspan></text>
  <text class="cls-1" transform="translate(708.00879 276.44189) rotate(-19.01658)"><tspan x="0" y="0">d</tspan></text>
  <text class="cls-1" transform="translate(782.21582 251.02832) rotate(-13.59666)"><tspan x="0" y="0">a</tspan></text>
  <text class="cls-1" transform="translate(848.15234 234.72998) rotate(-8.19447)"><tspan x="0" y="0">d</tspan></text>
  <text class="cls-1" transform="translate(925.83594 223.70312) rotate(-2.83956)"><tspan x="0" y="0">a</tspan></text>
  <text class="cls-1" transform="translate(994.07471 220.61914) rotate(1.39738)"><tspan x="0" y="0">t</tspan></text>
  <text class="cls-1" transform="translate(1042.9707 221.18701) rotate(5.9641)"><tspan x="0" y="0">h</tspan></text>
  <text class="cls-1" transform="translate(1119.14746 229.83252) rotate(10.08554)"><tspan x="0" y="0">i</tspan></text>
  <text class="cls-1" transform="translate(1154.52734 236.11426) rotate(12.70189)"><tspan x="0" y="0"> </tspan></text>
  <text class="cls-1" transform="translate(1188.14355 242.62012) rotate(17.11642)"><tspan x="0" y="0">V</tspan></text>
  <text class="cls-1" transform="translate(1269.10156 268.49463) rotate(21.57132)"><tspan x="0" y="0">i</tspan></text>
  <text class="cls-1" transform="translate(1302.30371 280.74805) rotate(25.72709)"><tspan x="0" y="0">n</tspan></text>
  <text class="cls-1" transform="translate(1371.30762 314.12109) rotate(31.05395)"><tspan x="0" y="0">a</tspan></text>
  <text class="cls-1" transform="translate(1429.65527 349.16211) rotate(36.04848)"><tspan x="0" y="0">y</tspan></text>
  <text class="cls-1" transform="translate(1484.73633 389.15186) rotate(41.02831)"><tspan x="0" y="0">a</tspan></text>
  <text class="cls-1" transform="translate(1536.20117 433.54688) rotate(46.31015)"><tspan x="0" y="0">n</tspan></text>
  <text class="cls-3" transform="translate(127.57715 1155.6875) rotate(74.1422)"><tspan x="0" y="0">W</tspan></text>
  <text class="cls-3" transform="translate(170.31494 1297.30957) rotate(66.25949)"><tspan x="0" y="0">p</tspan></text>
  <text class="cls-3" transform="translate(207.90967 1380.81445) rotate(61.11886)"><tspan x="0" y="0">/</tspan></text>
  <text class="cls-3" transform="translate(239.83301 1437.72949) rotate(57.65364)"><tspan x="0" y="0"> </tspan></text>
  <text class="cls-3" transform="translate(262.13477 1475.28906) rotate(52.65153)"><tspan x="0" y="0">H</tspan></text>
  <text class="cls-3" transform="translate(331.47217 1563.62793) rotate(47.08011)"><tspan x="0" y="0">r</tspan></text>
  <text class="cls-3" transform="translate(372.03809 1607.19727) rotate(43.0574)"><tspan x="0" y="0">/</tspan></text>
  <text class="cls-3" transform="translate(420.02148 1651.40527) rotate(39.61483)"><tspan x="0" y="0"> </tspan></text>
  <text class="cls-3" transform="translate(452.57324 1679.26855) rotate(35.34949)"><tspan x="0" y="0">P</tspan></text>
  <text class="cls-3" transform="translate(527.4585 1731.98926) rotate(29.4556)"><tspan x="0" y="0">o</tspan></text>
  <text class="cls-3" transform="translate(605.88477 1775.09863) rotate(25.12952)"><tspan x="0" y="0">l</tspan></text>
  <text class="cls-3" transform="translate(645.24365 1794.08789) rotate(21.13239)"><tspan x="0" y="0">e</tspan></text>
  <text class="cls-3" transform="translate(720.93506 1823.31738) rotate(15.50154)"><tspan x="0" y="0">g</tspan></text>
  <text class="cls-3" transform="translate(810.01807 1847.65332) rotate(9.54012)"><tspan x="0" y="0">o</tspan></text>
  <text class="cls-3" transform="translate(900.00342 1862.46973) rotate(3.63242)"><tspan x="0" y="0">d</tspan></text>
  <text class="cls-3" transform="translate(991.6626 1867.73535) rotate(-1.84241)"><tspan x="0" y="0">a</tspan></text>
  <text class="cls-3" transform="translate(1070.43262 1864.45117) rotate(-5.72252)"><tspan x="0" y="0"> </tspan></text>
  <text class="cls-3" transform="translate(1115.1875 1862.11035) rotate(-11.66855)"><tspan x="0" y="0">M</tspan></text>
  <text class="cls-3" transform="translate(1252.3877 1831.40527) rotate(-18.92126)"><tspan x="0" y="0">a</tspan></text>
  <text class="cls-3" transform="translate(1328.62988 1805.19824) rotate(-24.44918)"><tspan x="0" y="0">h</tspan></text>
  <text class="cls-3" transform="translate(1409.87012 1767.71777) rotate(-29.95637)"><tspan x="0" y="0">a</tspan></text>
  <text class="cls-3" transform="translate(1477.83008 1727.66895) rotate(-33.87296)"><tspan x="0" y="0"> </tspan></text>
  <text class="cls-3" transform="translate(1514.13379 1704.36328) rotate(-38.39517)"><tspan x="0" y="0">V</tspan></text>
  <text class="cls-3" transform="translate(1589.72852 1642.86719) rotate(-42.94673)"><tspan x="0" y="0">i</tspan></text>
  <text class="cls-3" transform="translate(1622.47266 1613.35352) rotate(-47.26684)"><tspan x="0" y="0">d</tspan></text>
  <text class="cls-3" transform="translate(1684.40625 1545.50098) rotate(-52.80555)"><tspan x="0" y="0">y</tspan></text>
  <text class="cls-3" transform="translate(1732.71289 1481.44531) rotate(-57.97306)"><tspan x="0" y="0">a</tspan></text>
  <text class="cls-3" transform="translate(1773.92871 1414.13477) rotate(-61.93551)"><tspan x="0" y="0">l</tspan></text>
  <text class="cls-3" transform="translate(1794.90234 1375.79297) rotate(-65.91188)"><tspan x="0" y="0">a</tspan></text>
  <text class="cls-3" transform="translate(1827.43848 1302.40723) rotate(-71.12992)"><tspan x="0" y="0">y</tspan></text>
  <text class="cls-3" transform="translate(1853.16504 1226.3623) rotate(-76.35302)"><tspan x="0" y="0">a</tspan></text>
  <path class="cls-2" d="M1000,1961.5c-129.79395,0-255.71484-25.42383-374.26465-75.56641-114.49658-48.42871-217.32178-117.75391-305.61865-206.05078s-157.62207-191.12207-206.0498-305.61816c-50.14258-118.5498-75.56689-244.4707-75.56689-374.26465s25.42432-255.71484,75.56689-374.26465c48.42773-114.49658,117.75293-217.32178,206.0498-305.61865s191.12207-157.62207,305.61865-206.0498c118.5498-50.14258,244.4707-75.56689,374.26465-75.56689s255.71484,25.42432,374.26465,75.56689c114.49609,48.42773,217.32129,117.75293,305.61816,206.0498s157.62207,191.12207,206.05078,305.61865c50.14258,118.5498,75.56641,244.4707,75.56641,374.26465s-25.42383,255.71484-75.56641,374.26465c-48.42871,114.49609-117.75391,217.32129-206.05078,305.61816s-191.12207,157.62207-305.61816,206.05078c-118.5498,50.14258-244.4707,75.56641-374.26465,75.56641ZM1000,73.5c-510.87402,0-926.5,415.62598-926.5,926.5s415.62598,926.5,926.5,926.5,926.5-415.62598,926.5-926.5S1510.87402,73.5,1000,73.5Z"/>
</svg>